<svg width="122" height="92" viewBox="0 0 122 92" fill="none" xmlns="http://www.w3.org/2000/svg">
<path fill-rule="evenodd" clip-rule="evenodd" d="M61.9158 41.7102C48.5054 39.9027 41.569 31.5428 46.4245 23.1828C51.28 14.8229 66.3089 9.62624 79.7193 11.6597C93.1297 13.4673 100.066 21.8272 95.2106 30.1871C90.1239 38.3211 75.3262 43.5178 61.9158 41.7102Z" fill="white"></path>
<path fill-rule="evenodd" clip-rule="evenodd" d="M1.51526 39.5293C8.19606 15.3893 39.7571 2.40833 63.0247 0.35871C81.2241 -1.23544 104.952 2.1806 109.56 16.7557C113.476 29.2812 99.6539 41.5789 78.4596 43.1731C82.6063 42.4898 86.9834 40.8957 90.439 38.6183C94.8161 35.8855 98.502 32.6972 100.115 28.598C110.712 0.586447 48.972 -0.0967606 28.0081 24.9542C11.6516 44.3117 30.7725 61.6197 51.7364 65.9466C77.9989 71.4123 108.638 59.57 122 39.0738C120.387 114.454 -15.7627 102.157 1.51526 39.5293Z" fill="white"></path>
</svg>