<svg width="347" height="213" viewBox="0 0 347 213" fill="none" xmlns="http://www.w3.org/2000/svg">
<path d="M100.901 211.931H91.5833C91.9803 205.411 92.1354 193.835 91.9803 182.506C87.3212 192.234 83.0095 202.104 79.0019 212.03H71.0361C67.1277 202.061 62.816 192.333 58.2065 182.705C58.1569 192.476 58.3058 205.212 58.7091 211.925H49.6328C50.2346 202.551 50.2346 183.958 49.6328 174.584C52.9891 175.037 59.6024 175.037 62.7664 174.584C66.5259 184.609 70.5894 194.436 75.0934 204.052C79.7525 194.38 83.9153 184.653 87.8734 174.584C91.1304 175.037 97.5017 175.037 100.759 174.584C100.207 184.212 100.207 202.65 100.914 211.925L100.901 211.931Z" fill="#D8670E"></path>
<path d="M111.193 181.064C107.787 181.064 106.031 180.009 106.031 177.602C106.031 175.195 107.787 174.041 111.193 174.041C114.903 174.041 116.807 175.195 116.807 177.602C116.807 180.009 114.903 181.064 111.193 181.064ZM106.931 184.972C109.94 185.475 112.645 185.574 115.554 184.972C114.959 194.191 114.959 202.715 115.554 211.94H106.931C107.582 202.765 107.582 194.247 106.931 184.972Z" fill="#D8670E"></path>
<path d="M129.426 211.938H120.703C121.807 204.016 121.807 196.05 120.703 185.721C124.059 185.522 127.918 184.92 130.028 183.965C129.078 187.873 128.675 190.932 128.421 194.741H129.122C131.076 188.624 135.94 184.064 142.454 184.064C150.221 184.064 152.833 189.375 152.833 195.597C152.833 200.908 152.634 207.074 153.484 211.938H144.966V200.163C144.966 194.201 142.46 190.392 137.751 190.392C132.385 190.392 129.432 194.803 129.432 201.118V211.944L129.426 211.938Z" fill="#D8670E"></path>
<path d="M191.553 171.994C189.748 179.662 189.847 204.974 190.951 211.941H182.632C182.93 209.738 183.134 207.679 183.184 205.123C181.329 210.08 177.371 212.741 171.409 212.741C162.19 212.741 156.023 206.426 156.023 197.703C156.023 189.582 161.439 184.067 169.356 184.067C176.571 184.067 180.281 188.583 182.39 193.441H183.041C182.886 182.262 182.446 176.653 182.036 173.644C184.747 173.446 189.351 172.943 191.559 171.994H191.553ZM174.157 207.983C177.117 207.983 180.82 206.978 183.178 202.368C182.979 196.202 180.169 189.588 172.6 189.588C167.234 189.588 164.132 193.05 164.132 198.212C164.132 204.626 168.748 207.983 174.157 207.983Z" fill="#D8670E"></path>
<path d="M207.485 189.776C207.386 193.083 207.287 196.297 207.237 199.051C207.138 204.963 210.047 206.62 213.652 206.669C216.158 206.719 218.962 205.919 221.221 205.317C220.824 207.172 220.718 209.126 221.121 210.981C218.466 211.781 214.905 212.532 211.45 212.532C205.587 212.482 200.121 210.274 200.121 202.662C200.121 200.807 200.121 195.49 199.966 189.931C197.41 190.031 195.009 190.186 192.695 190.384C192.894 188.933 192.894 186.426 192.695 184.975C194.954 185.173 197.354 185.328 199.811 185.427C199.656 182.369 199.513 179.466 199.259 177.307C202.566 176.953 205.376 176.506 207.826 175.303C207.727 178.609 207.628 182.121 207.572 185.576C212.287 185.576 217.045 185.378 221.208 184.975C221.01 187.034 221.01 188.281 221.208 190.384C217.002 189.987 212.231 189.783 207.473 189.783L207.485 189.776Z" fill="#D8670E"></path>
<path d="M256.399 211.94H248.278C247.577 209.836 247.273 207.727 247.124 205.723C244.313 209.929 240.709 212.69 233.841 212.69C226.527 212.69 223.016 209.433 223.016 205.221C223.016 200.307 228.028 197.199 238.302 197.199H247.025C246.77 192.683 245.219 189.73 238.004 189.73C232.191 189.73 226.775 191.833 223.872 194.643C224.225 192.689 224.225 189.178 223.872 187.472C227.631 185.716 232.594 184.115 239.158 184.115C248.985 184.115 254.699 187.323 254.699 196.442C254.748 202.857 255.052 207.572 256.405 211.933L256.399 211.94ZM237.756 207.38C241.36 207.38 244.524 206.275 247.074 204.569C247.025 203.018 247.074 201.511 247.074 200.158V199.308H242.812C235.392 199.308 231.484 200.512 231.484 203.571C231.484 205.971 233.643 207.38 237.75 207.38H237.756Z" fill="#D8670E"></path>
<path d="M259.414 173.644C262.373 173.545 265.333 173.092 268.286 171.994C267.088 181.765 267.281 201.866 268.044 211.941H259.42C260.171 202.213 260.171 182.77 259.42 173.651L259.414 173.644Z" fill="#D8670E"></path>
<path d="M305.104 211.93H293.627C291.524 207.922 287.863 204.312 283.7 198.747C282.695 198.945 281.647 199.045 280.642 199.045C280.741 204.001 280.989 208.567 281.244 211.924H272.422C273.576 202.153 273.576 183.305 272.422 174.18C275.431 174.024 279.184 173.578 281.895 172.529C280.747 178.491 280.443 187.964 280.592 196.743C285.903 196.042 292.225 190.676 292.919 185.564C295.674 185.408 300.991 185.266 303.745 184.261C302.393 189.671 296.983 194.385 290.363 196.991C294.47 201.706 300.141 208.623 305.104 211.93Z" fill="#D8670E"></path>
<path fill-rule="evenodd" clip-rule="evenodd" d="M167.871 45.7247C153.678 43.7535 146.337 34.6367 151.476 25.5199C156.615 16.4032 172.521 10.736 186.714 12.9536C200.907 14.9248 208.249 24.0415 203.11 33.1583C197.726 42.0287 182.065 47.6959 167.871 45.7247Z" fill="#D8670E"></path>
<path fill-rule="evenodd" clip-rule="evenodd" d="M104.016 42.7688C111.112 16.6505 144.638 2.6057 169.354 0.388108C188.686 -1.33669 213.891 2.3593 218.785 18.1289C222.945 31.6809 208.263 44.9864 185.749 46.7112C190.154 45.972 194.804 44.2472 198.474 41.7832C203.124 38.8265 207.039 35.3769 208.752 30.9417C220.009 0.634509 154.426 -0.104691 132.158 26.9993C114.783 47.9432 135.094 66.6696 157.363 71.3512C185.26 77.2648 217.806 64.452 232 42.276C230.287 123.834 85.6625 110.529 104.016 42.7688Z" fill="#CC2926"></path>
<path fill-rule="evenodd" clip-rule="evenodd" d="M40.1326 123.097C36.7066 117.676 31.8124 114.966 25.6946 114.966C20.311 114.966 16.1509 116.937 13.2144 121.372C10.2779 125.561 8.56488 131.228 8.56488 138.62C8.56488 148.722 12.4803 162.028 25.2052 162.028C32.0571 162.028 36.7066 157.839 40.8667 153.404L39.6432 159.071C35.2384 163.506 30.0994 165.724 23.737 165.724C9.05431 165.724 0 153.404 0 139.606C0 131.721 2.2024 125.068 6.8519 119.647C11.5014 114.226 17.3745 111.516 24.2264 111.516C28.8759 111.516 33.036 112.994 37.6855 112.994L39.8879 112.748V123.097H40.1326ZM169.34 127.532L171.542 125.314C174.724 122.358 178.394 120.879 182.799 120.879C187.938 120.879 191.853 122.85 195.035 126.546C203.599 136.895 200.173 157.1 188.672 163.506C184.512 165.724 174.724 167.942 170.563 161.289C171.787 162.521 173.5 163.506 175.458 163.506C191.364 164.246 197.237 142.07 188.917 130.242C186.714 127.039 183.533 125.314 179.862 125.314C172.766 125.314 169.34 129.75 169.34 138.62C169.34 145.766 169.34 152.911 169.34 159.81C169.34 166.463 163.222 165.97 158.328 164.985C160.775 164.985 162.243 163.999 162.243 160.303L162.488 108.066C162.488 107.081 162.243 105.602 161.02 104.863H167.138C168.606 104.863 169.585 105.849 169.585 107.327C169.34 114.719 169.34 120.386 169.34 127.532ZM305.889 114.473L306.867 110.284L307.112 108.313H312.006C311.762 109.791 311.272 111.023 311.027 112.009C310.783 112.502 310.783 112.994 310.538 113.487C310.293 114.226 309.804 115.212 309.07 116.198C308.336 117.43 307.602 118.662 306.623 119.647L302.952 123.097L304.665 118.662C305.154 117.43 305.644 116.198 305.889 114.473ZM237.37 124.329C237.37 123.343 237.125 121.865 235.901 121.126H242.019C243.487 121.126 244.466 122.111 244.466 123.59V160.55C244.466 164.246 246.424 165.231 248.626 165.231C243.732 166.217 237.614 166.71 237.614 160.057L237.37 124.329ZM268.693 123.59C269.671 124.329 270.65 125.807 272.118 128.025C277.257 121.126 289.493 116.937 296.834 123.097C303.197 128.518 301.239 139.359 301.239 146.751V160.796C301.239 164.492 302.952 165.478 305.399 165.478C300.505 166.463 294.142 166.956 294.142 160.303L294.387 138.62C294.387 134.431 294.632 130.489 292.185 127.039C285.578 119.154 272.853 127.286 272.853 135.91C272.853 144.287 272.853 152.418 272.853 160.796C272.853 164.492 274.566 165.478 277.013 165.478C272.118 166.463 265.756 166.956 265.756 160.303C265.756 150.447 265.756 142.316 265.756 132.46C265.756 122.358 249.116 122.85 245.2 130.489C247.158 120.386 260.617 116.198 268.693 123.59ZM110.854 108.066C110.854 107.081 110.609 105.602 109.386 104.863H115.504C116.972 104.863 117.951 105.849 117.951 107.327C117.951 125.561 117.951 142.316 117.951 160.55C117.951 164.246 119.664 165.231 122.111 165.231C117.216 166.217 111.099 166.71 111.099 160.057V142.07V135.17C111.099 131.474 110.365 128.764 109.141 127.286C107.917 125.561 105.96 124.822 103.023 124.822C98.1291 124.822 94.2137 126.546 91.0324 130.242C85.4041 137.142 84.67 150.201 90.0536 157.346C92.7454 161.042 97.6396 162.767 101.8 162.028C105.226 161.289 107.917 159.071 109.386 155.868C108.162 162.767 102.534 166.71 94.4584 165.724C77.0839 163.506 74.6368 139.113 85.8935 128.271C92.9901 121.618 101.8 121.618 110.854 121.618V108.066ZM69.0085 140.098C65.0931 142.07 60.933 144.534 57.2623 146.751C54.0811 148.722 51.3893 151.186 51.3893 154.636C51.3893 158.086 53.8364 160.303 57.0176 161.042C61.4224 162.028 66.5614 160.303 68.2743 155.868C66.3166 163.014 61.4224 166.956 54.0811 166.217C48.6975 165.478 44.048 161.782 44.048 156.114C44.048 150.694 48.4528 147.737 53.1023 145.273L69.0085 136.649V131.721C69.0085 127.286 67.5402 124.082 62.646 124.082C55.5494 124.082 51.634 129.257 47.9633 134.678V125.068C52.8575 122.604 57.5071 120.879 63.1354 120.879C70.7214 120.879 75.8604 123.59 75.8604 131.721C75.8604 141.33 75.8604 151.433 75.8604 161.042C75.8604 164.738 77.5733 165.724 80.0204 165.724C75.1262 166.71 69.0085 167.202 69.0085 160.55V140.098ZM145.848 140.098C141.932 142.07 137.772 144.534 134.102 146.751C130.92 148.722 128.228 151.186 128.228 154.636C128.228 158.086 130.676 160.303 133.857 161.042C138.262 162.028 143.401 160.303 145.114 155.868C143.156 163.014 138.262 166.956 130.92 166.217C125.537 165.478 120.887 161.782 120.887 156.114C120.887 150.694 125.292 147.737 129.941 145.273L145.848 136.649V131.721C145.848 127.286 144.379 124.082 139.485 124.082C132.389 124.082 128.473 129.257 124.803 134.678V125.068C129.697 122.604 134.346 120.879 139.975 120.879C147.561 120.879 152.7 123.59 152.7 131.721C152.7 141.33 152.7 151.433 152.7 161.042C152.7 164.738 154.413 165.724 156.86 165.724C151.965 166.71 145.848 167.202 145.848 160.55V140.098ZM225.379 140.098C221.463 142.07 217.303 144.534 213.633 146.751C210.451 148.722 207.76 151.186 207.76 154.636C207.76 158.086 210.207 160.303 213.388 161.042C217.793 162.028 222.932 160.303 224.645 155.868C222.687 163.014 217.793 166.956 210.451 166.217C205.068 165.478 200.418 161.782 200.418 156.114C200.418 150.694 204.823 147.737 209.472 145.273L225.379 136.649V131.721C225.379 127.286 223.91 124.082 219.016 124.082C211.92 124.082 208.004 129.257 204.334 134.678V125.068C209.228 122.604 213.877 120.879 219.506 120.879C227.092 120.879 232.231 123.59 232.231 131.721C232.231 141.33 232.231 151.433 232.231 161.042C232.231 164.738 233.944 165.724 236.391 165.724C231.496 166.71 225.379 167.202 225.379 160.55V140.098ZM340.638 154.636C338.925 154.636 337.701 155.375 336.477 156.361C335.499 157.346 334.764 158.825 334.764 160.55C334.764 162.028 335.499 163.506 336.477 164.738C337.456 165.724 338.925 166.463 340.638 166.463C342.106 166.463 343.574 165.724 344.798 164.738C345.776 163.753 346.511 162.274 346.511 160.55C346.511 159.071 345.776 157.593 344.798 156.361C343.819 155.375 342.351 154.636 340.638 154.636ZM340.638 163.753V157.593H341.616L342.595 162.028L342.84 163.014C342.84 162.767 343.085 162.521 343.085 162.028L344.063 157.839H344.798V163.999H344.308V158.825L343.085 163.999H342.595L341.372 158.825V163.999H340.638V163.753ZM337.946 163.753V158.332H336.477V157.593H340.148V158.332H338.68V163.753H337.946ZM340.638 154.143C342.351 154.143 344.063 154.882 345.042 156.114C346.266 157.346 347 158.825 347 160.55C347 162.274 346.266 163.999 345.042 164.985C343.819 166.217 342.351 166.956 340.638 166.956C338.925 166.956 337.212 166.217 336.233 164.985C335.009 163.753 334.275 162.274 334.275 160.55C334.275 158.825 335.009 157.1 336.233 156.114C337.456 154.882 338.925 154.143 340.638 154.143ZM306.867 152.665C308.825 156.361 310.783 158.825 312.74 160.303C314.698 161.782 316.901 162.521 319.103 162.521C323.753 162.521 326.934 159.564 326.934 154.882C326.934 148.969 321.55 146.998 317.145 144.534C312.251 142.07 307.357 137.881 307.357 131.967C307.357 127.778 309.559 124.575 312.496 122.604C318.369 118.908 325.71 119.894 332.073 121.865V130.489C329.381 124.575 322.04 120.386 316.656 125.314C313.23 128.271 313.964 133.199 317.145 135.91C323.752 140.098 334.03 143.302 334.03 152.418C334.03 158.578 330.115 163.506 324.487 165.231C318.858 166.956 312.006 165.478 306.867 162.521V152.665Z" fill="#CC2926"></path>
</svg>