<svg width="357" height="219" viewBox="0 0 357 219" fill="none" xmlns="http://www.w3.org/2000/svg">
<mask id="mask0_2253_590" style="mask-type:alpha" maskUnits="userSpaceOnUse" x="0" y="0" width="357" height="219">
<path d="M103.816 218.037H94.2297C94.6382 211.329 94.7978 199.419 94.6382 187.764C89.8448 197.772 85.4089 207.927 81.2857 218.139H73.0904C69.0694 207.882 64.6334 197.874 59.8911 187.968C59.8401 198.021 59.9932 211.124 60.4081 218.03H51.0703C51.6894 208.386 51.6894 189.257 51.0703 179.613C54.5233 180.079 61.3272 180.079 64.5824 179.613C68.4502 189.928 72.6309 200.038 77.2647 209.931C82.058 199.98 86.3408 189.972 90.4129 179.613C93.7638 180.079 100.319 180.079 103.67 179.613C103.102 189.519 103.102 208.488 103.829 218.03L103.816 218.037Z" fill="#D8670E"></path>
<path d="M114.412 186.278C110.908 186.278 109.102 185.193 109.102 182.716C109.102 180.24 110.908 179.053 114.412 179.053C118.229 179.053 120.188 180.24 120.188 182.716C120.188 185.193 118.229 186.278 114.412 186.278ZM110.027 190.299C113.123 190.816 115.905 190.918 118.899 190.299C118.286 199.784 118.286 208.553 118.899 218.044H110.027C110.697 208.604 110.697 199.841 110.027 190.299Z" fill="#D8670E"></path>
<path d="M133.161 218.037H124.188C125.324 209.887 125.324 201.691 124.188 191.064C127.641 190.86 131.611 190.241 133.781 189.258C132.804 193.279 132.389 196.426 132.128 200.344H132.849C134.859 194.051 139.863 189.36 146.565 189.36C154.556 189.36 157.243 194.823 157.243 201.225C157.243 206.689 157.039 213.033 157.913 218.037H149.15V205.923C149.15 199.789 146.571 195.87 141.727 195.87C136.206 195.87 133.168 200.408 133.168 206.906V218.044L133.161 218.037Z" fill="#D8670E"></path>
<path d="M197.085 176.941C195.227 184.83 195.329 210.872 196.466 218.039H187.906C188.213 215.773 188.423 213.654 188.474 211.025C186.566 216.124 182.494 218.863 176.36 218.863C166.876 218.863 160.531 212.365 160.531 203.391C160.531 195.036 166.103 189.362 174.248 189.362C181.671 189.362 185.487 194.009 187.657 199.006H188.328C188.168 187.505 187.715 181.735 187.294 178.639C190.083 178.435 194.819 177.918 197.091 176.941H197.085ZM179.188 213.967C182.232 213.967 186.043 212.933 188.468 208.191C188.264 201.846 185.372 195.043 177.586 195.043C172.065 195.043 168.873 198.604 168.873 203.914C168.873 210.514 173.622 213.967 179.188 213.967Z" fill="#D8670E"></path>
<path d="M213.474 195.236C213.372 198.638 213.27 201.945 213.219 204.778C213.117 210.861 216.11 212.565 219.818 212.616C222.397 212.667 225.282 211.844 227.605 211.225C227.197 213.133 227.088 215.144 227.503 217.052C224.771 217.876 221.108 218.648 217.553 218.648C211.521 218.597 205.898 216.325 205.898 208.493C205.898 206.585 205.898 201.115 205.738 195.396C203.109 195.498 200.639 195.658 198.258 195.862C198.462 194.368 198.462 191.79 198.258 190.296C200.581 190.5 203.051 190.66 205.579 190.762C205.419 187.616 205.272 184.628 205.011 182.407C208.413 182.043 211.304 181.584 213.825 180.346C213.723 183.748 213.621 187.36 213.563 190.915C218.414 190.915 223.31 190.711 227.592 190.296C227.388 192.415 227.388 193.698 227.592 195.862C223.265 195.453 218.357 195.243 213.461 195.243L213.474 195.236Z" fill="#D8670E"></path>
<path d="M263.79 218.036H255.435C254.714 215.873 254.401 213.702 254.248 211.641C251.357 215.968 247.649 218.809 240.583 218.809C233.058 218.809 229.445 215.458 229.445 211.124C229.445 206.069 234.602 202.871 245.172 202.871H254.146C253.884 198.225 252.289 195.186 244.866 195.186C238.885 195.186 233.313 197.35 230.326 200.241C230.69 198.231 230.69 194.618 230.326 192.863C234.194 191.057 239.3 189.41 246.053 189.41C256.163 189.41 262.041 192.71 262.041 202.092C262.093 208.692 262.405 213.543 263.797 218.03L263.79 218.036ZM244.61 213.345C248.319 213.345 251.574 212.209 254.197 210.454C254.146 208.858 254.197 207.307 254.197 205.916V205.041H249.812C242.179 205.041 238.158 206.279 238.158 209.426C238.158 211.896 240.379 213.345 244.604 213.345H244.61Z" fill="#D8670E"></path>
<path d="M266.898 178.639C269.943 178.537 272.987 178.071 276.026 176.941C274.794 186.994 274.992 207.674 275.777 218.039H266.905C267.677 208.031 267.677 188.028 266.905 178.646L266.898 178.639Z" fill="#D8670E"></path>
<path d="M313.905 218.03H302.097C299.933 213.907 296.168 210.192 291.885 204.467C290.851 204.671 289.772 204.774 288.738 204.774C288.84 209.873 289.096 214.571 289.357 218.024H280.281C281.468 207.971 281.468 188.581 280.281 179.192C283.377 179.032 287.238 178.573 290.028 177.494C288.847 183.628 288.534 193.374 288.687 202.406C294.151 201.684 300.655 196.163 301.369 190.904C304.203 190.744 309.673 190.598 312.507 189.564C311.116 195.129 305.55 199.98 298.74 202.661C302.965 207.512 308.799 214.628 313.905 218.03Z" fill="#D8670E"></path>
<path fill-rule="evenodd" clip-rule="evenodd" d="M172.712 47.0424C158.109 45.0144 150.556 35.6348 155.843 26.2553C161.13 16.8758 177.495 11.0453 192.097 13.3268C206.7 15.3548 214.252 24.7343 208.965 34.1138C203.427 43.2398 187.314 49.0704 172.712 47.0424Z" fill="#D8670E"></path>
<path fill-rule="evenodd" clip-rule="evenodd" d="M107.008 44.0014C114.309 17.1303 148.8 2.6808 174.228 0.399293C194.118 -1.37521 220.049 2.4273 225.084 18.6513C229.364 32.5939 214.259 46.2829 191.096 48.0574C195.628 47.2969 200.412 45.5224 204.188 42.9874C208.972 39.9454 213 36.3964 214.762 31.8334C226.343 0.652794 158.871 -0.107708 135.96 27.7773C118.085 49.3249 138.981 68.5909 161.892 73.4074C190.593 79.4914 224.077 66.3094 238.68 43.4944C236.917 127.403 88.1253 113.714 107.008 44.0014Z" fill="#CC2926"></path>
<path fill-rule="evenodd" clip-rule="evenodd" d="M41.2891 126.646C37.7645 121.069 32.7292 118.28 26.4351 118.28C20.8963 118.28 16.6164 120.308 13.5952 124.871C10.574 129.181 8.81171 135.011 8.81171 142.616C8.81171 153.01 12.8399 166.699 25.9316 166.699C32.981 166.699 37.7645 162.389 42.0444 157.826L40.7856 163.657C36.2539 168.22 30.9669 170.501 24.421 170.501C9.31524 170.501 0 157.826 0 143.63C0 135.518 2.26587 128.674 7.04937 123.097C11.8329 117.52 17.8752 114.731 24.9245 114.731C29.708 114.731 33.988 116.252 38.7715 116.252L41.0374 115.999V126.646H41.2891ZM174.22 131.209L176.486 128.927C179.759 125.885 183.535 124.364 188.067 124.364C193.354 124.364 197.382 126.392 200.655 130.195C209.467 140.842 205.942 161.629 194.109 168.22C189.829 170.501 179.759 172.783 175.479 165.938C176.738 167.206 178.5 168.22 180.514 168.22C196.879 168.98 202.921 146.165 194.361 133.997C192.095 130.702 188.822 128.927 185.046 128.927C177.745 128.927 174.22 133.49 174.22 142.616C174.22 149.968 174.22 157.319 174.22 164.417C174.22 171.262 167.926 170.755 162.891 169.741C165.408 169.741 166.919 168.727 166.919 164.924L167.171 111.182C167.171 110.168 166.919 108.647 165.66 107.887H171.954C173.465 107.887 174.472 108.901 174.472 110.422C174.22 118.027 174.22 123.857 174.22 131.209ZM314.704 117.773L315.711 113.464L315.963 111.436H320.998C320.746 112.957 320.243 114.224 319.991 115.238C319.739 115.745 319.739 116.252 319.487 116.759C319.236 117.52 318.732 118.534 317.977 119.548C317.221 120.815 316.466 122.083 315.459 123.097L311.683 126.646L313.445 122.083C313.949 120.815 314.452 119.548 314.704 117.773ZM244.21 127.913C244.21 126.899 243.958 125.378 242.7 124.618H248.994C250.504 124.618 251.511 125.632 251.511 127.153V165.178C251.511 168.98 253.525 169.994 255.791 169.994C250.756 171.008 244.462 171.515 244.462 164.671L244.21 127.913ZM276.436 127.153C277.443 127.913 278.45 129.434 279.961 131.716C285.248 124.618 297.836 120.308 305.389 126.646C311.934 132.223 309.92 143.377 309.92 150.982V165.431C309.92 169.234 311.683 170.248 314.2 170.248C309.165 171.262 302.619 171.769 302.619 164.924L302.871 142.616C302.871 138.307 303.123 134.251 300.605 130.702C293.807 122.59 280.716 130.955 280.716 139.828C280.716 148.447 280.716 156.812 280.716 165.431C280.716 169.234 282.478 170.248 284.996 170.248C279.961 171.262 273.415 171.769 273.415 164.924C273.415 154.784 273.415 146.419 273.415 136.279C273.415 125.885 256.295 126.392 252.267 134.251C254.281 123.857 268.128 119.548 276.436 127.153ZM114.049 111.182C114.049 110.168 113.797 108.647 112.538 107.887H118.832C120.343 107.887 121.35 108.901 121.35 110.422C121.35 129.181 121.35 146.419 121.35 165.178C121.35 168.98 123.112 169.994 125.63 169.994C120.594 171.008 114.3 171.515 114.3 164.671V146.165V139.067C114.3 135.265 113.545 132.476 112.286 130.955C111.028 129.181 109.013 128.42 105.992 128.42C100.957 128.42 96.9288 130.195 93.6558 133.997C87.8653 141.095 87.11 154.531 92.6488 161.882C95.4182 165.685 100.453 167.459 104.733 166.699C108.258 165.938 111.027 163.657 112.538 160.361C111.279 167.459 105.489 171.515 97.1805 170.501C79.3054 168.22 76.7877 143.123 88.3688 131.969C95.67 125.125 104.733 125.125 114.049 125.125V111.182ZM70.9972 144.137C66.969 146.165 62.689 148.7 58.9126 150.982C55.6396 153.01 52.8702 155.545 52.8702 159.094C52.8702 162.643 55.3879 164.924 58.6608 165.685C63.1925 166.699 68.4796 164.924 70.2419 160.361C68.2278 167.713 63.1925 171.769 55.6396 171.008C50.1008 170.248 45.3174 166.445 45.3174 160.615C45.3174 155.038 49.8491 151.996 54.6326 149.461L70.9972 140.588V135.518C70.9972 130.955 69.4866 127.66 64.4513 127.66C57.1502 127.66 53.122 132.983 49.3456 138.56V128.674C54.3808 126.139 59.1643 124.364 64.9549 124.364C72.7595 124.364 78.0466 127.153 78.0466 135.518C78.0466 145.405 78.0466 155.798 78.0466 165.685C78.0466 169.487 79.8089 170.501 82.3265 170.501C77.2912 171.515 70.9972 172.022 70.9972 165.178V144.137ZM150.051 144.137C146.023 146.165 141.743 148.7 137.966 150.982C134.693 153.01 131.924 155.545 131.924 159.094C131.924 162.643 134.441 164.924 137.714 165.685C142.246 166.699 147.533 164.924 149.295 160.361C147.281 167.713 142.246 171.769 134.693 171.008C129.154 170.248 124.371 166.445 124.371 160.615C124.371 155.038 128.903 151.996 133.686 149.461L150.051 140.588V135.518C150.051 130.955 148.54 127.66 143.505 127.66C136.204 127.66 132.176 132.983 128.399 138.56V128.674C133.434 126.139 138.218 124.364 144.008 124.364C151.813 124.364 157.1 127.153 157.1 135.518C157.1 145.405 157.1 155.798 157.1 165.685C157.1 169.487 158.862 170.501 161.38 170.501C156.345 171.515 150.051 172.022 150.051 165.178V144.137ZM231.874 144.137C227.846 146.165 223.566 148.7 219.789 150.982C216.516 153.01 213.747 155.545 213.747 159.094C213.747 162.643 216.264 164.924 219.537 165.685C224.069 166.699 229.356 164.924 231.118 160.361C229.104 167.713 224.069 171.769 216.516 171.008C210.977 170.248 206.194 166.445 206.194 160.615C206.194 155.038 210.726 151.996 215.509 149.461L231.874 140.588V135.518C231.874 130.955 230.363 127.66 225.328 127.66C218.027 127.66 213.999 132.983 210.222 138.56V128.674C215.257 126.139 220.041 124.364 225.831 124.364C233.636 124.364 238.923 127.153 238.923 135.518C238.923 145.405 238.923 155.798 238.923 165.685C238.923 169.487 240.685 170.501 243.203 170.501C238.168 171.515 231.874 172.022 231.874 165.178V144.137ZM350.454 159.094C348.692 159.094 347.433 159.854 346.174 160.868C345.167 161.882 344.412 163.403 344.412 165.178C344.412 166.699 345.167 168.22 346.174 169.487C347.181 170.501 348.692 171.262 350.454 171.262C351.965 171.262 353.475 170.501 354.734 169.487C355.741 168.473 356.497 166.952 356.497 165.178C356.497 163.657 355.741 162.136 354.734 160.868C353.727 159.854 352.217 159.094 350.454 159.094ZM350.454 168.473V162.136H351.461L352.468 166.699L352.72 167.713C352.72 167.459 352.972 167.206 352.972 166.699L353.979 162.389H354.734V168.727H354.231V163.403L352.972 168.727H352.468L351.209 163.403V168.727H350.454V168.473ZM347.685 168.473V162.896H346.174V162.136H349.951V162.896H348.44V168.473H347.685ZM350.454 158.587C352.217 158.587 353.979 159.347 354.986 160.615C356.245 161.882 357 163.403 357 165.178C357 166.952 356.245 168.727 354.986 169.741C353.727 171.008 352.217 171.769 350.454 171.769C348.692 171.769 346.93 171.008 345.922 169.741C344.664 168.473 343.908 166.952 343.908 165.178C343.908 163.403 344.664 161.629 345.922 160.615C347.181 159.347 348.692 158.587 350.454 158.587ZM315.711 157.066C317.725 160.868 319.739 163.403 321.753 164.924C323.767 166.445 326.033 167.206 328.299 167.206C333.083 167.206 336.355 164.164 336.355 159.347C336.355 153.263 330.817 151.235 326.285 148.7C321.25 146.165 316.214 141.856 316.214 135.772C316.214 131.462 318.48 128.167 321.501 126.139C327.544 122.336 335.097 123.35 341.642 125.378V134.251C338.873 128.167 331.32 123.857 325.781 128.927C322.257 131.969 323.012 137.039 326.285 139.828C333.083 144.137 343.657 147.433 343.657 156.812C343.657 163.15 339.628 168.22 333.838 169.994C328.047 171.769 320.998 170.248 315.711 167.206V157.066Z" fill="#7B1627"></path>
</mask>
<g mask="url(#mask0_2253_590)">
<rect x="-14.3438" y="-40.9863" width="422.779" height="298.205" fill="white"></rect>
</g>
</svg>